<svg width="21" height="16" viewBox="0 0 21 16" fill="none" xmlns="http://www.w3.org/2000/svg">
<path d="M20.475 6.5H18.375V4.5C18.375 4.225 18.1388 4 17.85 4H16.8C16.5112 4 16.275 4.225 16.275 4.5V6.5H14.175C13.8862 6.5 13.65 6.725 13.65 7V8C13.65 8.275 13.8862 8.5 14.175 8.5H16.275V10.5C16.275 10.775 16.5112 11 16.8 11H17.85C18.1388 11 18.375 10.775 18.375 10.5V8.5H20.475C20.7637 8.5 21 8.275 21 8V7C21 6.725 20.7637 6.5 20.475 6.5ZM7.35 8C9.66984 8 11.55 6.20937 11.55 4C11.55 1.79063 9.66984 0 7.35 0C5.03016 0 3.15 1.79063 3.15 4C3.15 6.20937 5.03016 8 7.35 8ZM10.29 9H9.74203C9.01359 9.31875 8.20312 9.5 7.35 9.5C6.49687 9.5 5.68969 9.31875 4.95797 9H4.41C1.97531 9 0 10.8813 0 13.2V14.5C0 15.3281 0.705469 16 1.575 16H13.125C13.9945 16 14.7 15.3281 14.7 14.5V13.2C14.7 10.8813 12.7247 9 10.29 9Z" fill="#5858AA"/>
</svg>
